# xmcd CD database file
#
# Track frame offsets:
#	150
#	10294
#	24259
#	45267
#	60730
#	74158
#	93246
#	113784
#	128707
#	144125
#
# Disc length: 2067 seconds
#
# Revision: 0
# Processed by: cddbd v1.5.2PL0 Copyright (c) Steve Scherf et al.
# Submitted via: CDex 1.51
#
DISCID=7c08110a
DTITLE=Downchild Blues Band - Blood Run Hot
DYEAR=1981
DGENRE=Blues
TTITLE0=Hey Hey Little Girl
TTITLE1=Rocket 88
TTITLE2=Could Have Had All Your Lovin'
TTITLE3=Natural Ball
TTITLE4=Drivin' Blues
TTITLE5=Blood Run Hot
TTITLE6=Nine Below Zero
TTITLE7=Shot Full Of Love
TTITLE8=Let's Get High
TTITLE9=They Were Rockin'
EXTD=YEAR: 1981
EXTT0=
EXTT1=
EXTT2=
EXTT3=
EXTT4=
EXTT5=
EXTT6=
EXTT7=
EXTT8=
EXTT9=
PLAYORDER=
